<svg width="24" height="25" viewBox="0 0 24 25" fill="none" xmlns="http://www.w3.org/2000/svg">
<path d="M12 2.5C13.3833 2.5 14.6837 2.76244 15.9004 3.28711C17.1169 3.81243 18.1753 4.5249 19.0752 5.4248C19.9751 6.32472 20.6873 7.38309 21.2119 8.59961C21.7372 9.81628 22 11.1167 22 12.5C22 13.8833 21.7372 15.1837 21.2119 16.4004C20.6873 17.6169 19.9751 18.6753 19.0752 19.5752C18.1753 20.4751 17.1169 21.1873 15.9004 21.7119C14.6837 22.2372 13.3833 22.5 12 22.5C10.6167 22.5 9.31628 22.2372 8.09961 21.7119C6.88309 21.1873 5.82472 20.4751 4.9248 19.5752C4.02489 18.6753 3.31274 17.6169 2.78809 16.4004C2.26275 15.1837 2 13.8833 2 12.5C2 11.1167 2.26275 9.81628 2.78809 8.59961C3.31274 7.38309 4.02489 6.32472 4.9248 5.4248C5.82471 4.5249 6.8831 3.81243 8.09961 3.28711C9.31628 2.76244 10.6167 2.5 12 2.5ZM12 4.5C9.76667 4.5 7.8752 5.2752 6.3252 6.8252C4.7752 8.3752 4 10.2667 4 12.5C4 14.7333 4.7752 16.6248 6.3252 18.1748C7.8752 19.7248 9.76667 20.5 12 20.5C14.2333 20.5 16.1248 19.7248 17.6748 18.1748C19.2248 16.6248 20 14.7333 20 12.5C20 10.2667 19.2248 8.3752 17.6748 6.8252C16.1248 5.2752 14.2333 4.5 12 4.5ZM15.8965 9.00391C16.0917 8.80864 16.4083 8.80864 16.6035 9.00391L17.2969 9.69629C17.4919 9.89144 17.4917 10.2081 17.2969 10.4033L10.9531 16.7461C10.7579 16.9413 10.4414 16.9414 10.2461 16.7461L6.70312 13.2031C6.5083 13.0078 6.50802 12.6912 6.70312 12.4961L7.39648 11.8037C7.59175 11.6084 7.90825 11.6084 8.10352 11.8037L10.2461 13.9463C10.4413 14.1415 10.7579 14.1414 10.9531 13.9463L15.8965 9.00391Z" fill="white"/>
</svg>
