<svg width="24" height="25" viewBox="0 0 24 25" fill="none" xmlns="http://www.w3.org/2000/svg">
<g clip-path="url(#clip0_25_245)">
<path fill-rule="evenodd" clip-rule="evenodd" d="M11.9989 0.899902C5.59416 0.899902 0.400002 6.09339 0.400002 12.5003C0.400002 17.6247 3.72344 21.9729 8.33296 23.5074C8.91335 23.6135 9.12483 23.2554 9.12483 22.9477C9.12483 22.6721 9.11487 21.9429 9.10917 20.9751C5.88258 21.6759 5.20179 19.4199 5.20179 19.4199C4.67411 18.0797 3.91359 17.7229 3.91359 17.7229C2.86037 17.0037 3.99335 17.018 3.99335 17.018C5.15765 17.0999 5.77007 18.2137 5.77007 18.2137C6.80477 19.986 8.48536 19.474 9.14621 19.177C9.2516 18.4279 9.55139 17.9165 9.88253 17.6268C7.3068 17.3333 4.59864 16.3386 4.59864 11.8936C4.59864 10.6267 5.05083 9.59201 5.79285 8.78091C5.67322 8.48752 5.27515 7.30824 5.90679 5.71096C5.90679 5.71096 6.88024 5.39904 9.09635 6.89947C10.0214 6.6424 11.0141 6.51422 12.0004 6.50923C12.9859 6.51422 13.9779 6.6424 14.9044 6.89947C17.119 5.39904 18.091 5.71096 18.091 5.71096C18.7242 7.30824 18.3261 8.48752 18.2072 8.78091C18.9506 9.59201 19.3992 10.6267 19.3992 11.8936C19.3992 16.35 16.6867 17.3306 14.1032 17.6175C14.5191 17.9757 14.8901 18.6836 14.8901 19.766C14.8901 21.3162 14.8759 22.5674 14.8759 22.9477C14.8759 23.2581 15.0852 23.6193 15.6735 23.506C20.2794 21.9685 23.6 17.6239 23.6 12.5003C23.6 6.09339 18.4058 0.899902 11.9989 0.899902Z" fill="black"/>
</g>
<defs>
<clipPath id="clip0_25_245">
<rect width="24" height="24" fill="white" transform="translate(0 0.5)"/>
</clipPath>
</defs>
</svg>
