<svg width="58" height="36" viewBox="0 0 58 36" fill="none" xmlns="http://www.w3.org/2000/svg">
<rect x="31.048" y="35.4406" width="32.5455" height="4.49247" rx="2.24624" transform="rotate(-90 31.048 35.4406)" fill="white"/>
<rect x="58.0028" y="1.29782" width="34.1428" height="4.49247" rx="2.24624" transform="rotate(90 58.0028 1.29782)" fill="white"/>
<rect x="50.2158" y="22.2627" width="13.1779" height="4.49247" rx="2.24624" transform="rotate(90 50.2158 22.2627)" fill="white"/>
<rect x="44.0262" y="9.53674e-07" width="12.7786" height="4.49247" rx="2.24624" transform="rotate(90 44.0262 9.53674e-07)" fill="white"/>
<rect x="20.2707" y="8.18629" width="20.266" height="4.49247" rx="2.24624" transform="rotate(90 20.2707 8.18629)" fill="white"/>
<rect x="12.2366" y="14.8751" width="18.8684" height="4.49247" rx="2.24624" transform="rotate(90 12.2366 14.8751)" fill="white"/>
<rect x="28.4523" y="35.4406" width="20.7153" height="4.49247" rx="2.24624" transform="rotate(180 28.4523 35.4406)" fill="white"/>
<rect x="23.9789" y="35.4406" width="17.1712" height="4.49247" rx="2.24624" transform="rotate(-90 23.9789 35.4406)" fill="white"/>
<path d="M0 2.24624C0 1.00568 1.00567 9.53674e-07 2.24624 9.53674e-07H26.3059C27.5465 9.53674e-07 28.5522 1.00568 28.5522 2.24624C28.5522 3.4868 27.5465 4.49247 26.3059 4.49247H2.24623C1.00567 4.49247 0 3.4868 0 2.24624Z" fill="white"/>
<path d="M0 10.4361C0 9.19549 1.00567 8.18982 2.24624 8.18982H15.3133C16.5539 8.18982 17.5596 9.19549 17.5596 10.4361C17.5596 11.6766 16.5539 12.6823 15.3133 12.6823H2.24624C1.00567 12.6823 0 11.6766 0 10.4361Z" fill="white"/>
<path d="M2.25019 2.89701C3.49075 2.89701 4.49643 3.90269 4.49643 5.14325L4.49643 7.99294C4.49643 9.2335 3.49075 10.2392 2.25019 10.2392C1.00963 10.2392 0.00395679 9.2335 0.00395679 7.99293L0.00395679 5.14325C0.00395679 3.90268 1.00963 2.89701 2.25019 2.89701Z" fill="white"/>
<path d="M10.0117 17.1213C10.0117 18.3619 9.00604 19.3676 7.76548 19.3676H2.24616C1.0056 19.3676 -7.62939e-05 18.3619 -7.62939e-05 17.1213C-7.62939e-05 15.8808 1.0056 14.8751 2.24616 14.8751H5.00582H7.76548C9.00604 14.8751 10.0117 15.8808 10.0117 17.1213Z" fill="white"/>
<path d="M43.028 2.24624C43.028 3.4868 42.0223 4.49248 40.7817 4.49248H33.2943C32.0537 4.49248 31.048 3.4868 31.048 2.24624C31.048 1.00568 32.0537 2.86102e-06 33.2943 2.86102e-06H37.038H40.7817C42.0223 2.86102e-06 43.028 1.00568 43.028 2.24624Z" fill="white"/>
<path d="M42.3292 33.1944C42.3292 34.4349 41.3235 35.4406 40.083 35.4406H34.4924C33.2518 35.4406 32.2461 34.4349 32.2461 33.1944C32.2461 31.9538 33.2518 30.9481 34.4924 30.9481H37.2877H40.083C41.3235 30.9481 42.3292 31.9538 42.3292 33.1944Z" fill="white"/>
<path d="M57.0044 33.1944C57.0044 34.4349 55.9987 35.4406 54.7582 35.4406H49.1675C47.927 35.4406 46.9213 34.4349 46.9213 33.1944C46.9213 31.9538 47.927 30.9481 49.1675 30.9481H51.9628H54.7582C55.9987 30.9481 57.0044 31.9538 57.0044 33.1944Z" fill="white"/>
<path d="M50.6152 10.5324C50.6152 11.7729 49.6096 12.7786 48.369 12.7786H44.3757C43.1351 12.7786 42.1295 11.7729 42.1295 10.5324C42.1295 9.29179 43.1351 8.28612 44.3757 8.28612H46.3723H48.369C49.6096 8.28612 50.6152 9.29179 50.6152 10.5324Z" fill="white"/>
<path d="M58.0028 2.24624C58.0028 3.4868 56.9971 4.49248 55.7566 4.49248H49.7666C48.526 4.49248 47.5204 3.4868 47.5204 2.24624C47.5204 1.00568 48.526 2.86102e-06 49.7666 2.86102e-06H52.7616H55.7566C56.9971 2.86102e-06 58.0028 1.00568 58.0028 2.24624Z" fill="white"/>
<path d="M50.2158 23.9099C50.2158 25.1505 49.2101 26.1562 47.9696 26.1562H40.9813C39.7407 26.1562 38.735 25.1505 38.735 23.9099C38.735 22.6694 39.7407 21.6637 40.9813 21.6637H44.4754H47.9696C49.2101 21.6637 50.2158 22.6694 50.2158 23.9099Z" fill="white"/>
</svg>
